<mxfile host="app.diagrams.net" modified="2022-05-20T21:30:22.083Z" agent="5.0 (Windows NT 10.0; Win64; x64) AppleWebKit/537.36 (KHTML, like Gecko) Chrome/101.0.4951.54 Safari/537.36" etag="YkVaya4k_rNmRdUfVYqf" version="18.0.3" type="github">
  <diagram id="VVHMFfT2ttVO2xcbPA5J" name="Page-1">
    <mxGraphModel dx="677" dy="332" grid="1" gridSize="10" guides="1" tooltips="1" connect="1" arrows="1" fold="1" page="1" pageScale="1" pageWidth="827" pageHeight="1169" math="0" shadow="0">
      <root>
        <mxCell id="0" />
        <mxCell id="1" parent="0" />
        <mxCell id="Mo1bpWdxDykt7YT-q3bb-1" value="&lt;div style=&quot;&quot;&gt;&lt;div style=&quot;font-size: 17px;&quot;&gt;# Modify user info&lt;/div&gt;&lt;div style=&quot;font-size: 17px;&quot;&gt;dn: cn=&lt;font color=&quot;#ff8000&quot;&gt;vinc&lt;/font&gt;,ou=people,dc=nasa,dc=imslab,dc=org&lt;/div&gt;&lt;div style=&quot;font-size: 17px;&quot;&gt;changetype: modify&amp;nbsp;&lt;/div&gt;&lt;div style=&quot;font-size: 17px;&quot;&gt;add: description&lt;/div&gt;&lt;div style=&quot;font-size: 17px;&quot;&gt;description: NASA TA&lt;/div&gt;&lt;div style=&quot;font-size: 17px;&quot;&gt;&lt;span style=&quot;background-color: initial;&quot;&gt;&lt;br&gt;&lt;/span&gt;&lt;/div&gt;&lt;div style=&quot;font-size: 17px;&quot;&gt;&lt;span style=&quot;background-color: initial;&quot;&gt;dn: cn=&lt;font color=&quot;#ff8000&quot;&gt;chummy&lt;/font&gt;,ou=people,&lt;/span&gt;&lt;span style=&quot;background-color: initial;&quot;&gt;dc=nasa,dc=imslab,dc=org&lt;/span&gt;&lt;/div&gt;&lt;div style=&quot;&quot;&gt;&lt;span style=&quot;font-size: 17px;&quot;&gt;changetype: modify&amp;nbsp;&lt;/span&gt;&lt;/div&gt;&lt;div style=&quot;&quot;&gt;&lt;span style=&quot;font-size: 17px;&quot;&gt;add: description&lt;/span&gt;&lt;/div&gt;&lt;div style=&quot;&quot;&gt;&lt;span style=&quot;font-size: 17px;&quot;&gt;description: NASA TA&lt;/span&gt;&lt;/div&gt;&lt;/div&gt;" style="rounded=0;whiteSpace=wrap;html=1;align=left;fillColor=#E6E6E6;" parent="1" vertex="1">
          <mxGeometry x="160" y="170" width="469" height="230" as="geometry" />
        </mxCell>
        <mxCell id="Mo1bpWdxDykt7YT-q3bb-2" value="" style="shape=image;verticalLabelPosition=bottom;labelBackgroundColor=default;verticalAlign=top;imageAspect=0;image=data:image/png,iVBORw0KGgoAAAANSUhEUgAABOYAAAA6CAMAAAAjkaZfAAAAAXNSR0IArs4c6QAAAARnQU1BAACxjwv8YQUAAAAwUExURQAAAN9gAN9wEORtC+NsC+NsCuRtC+VtCuVsC+VtCuRsC+RsCuVtCuRsCuRsCuRsCo1ldGsAAAAPdFJOUwAIEGB4gI+fp7e/z9/v9yCTkQ0AAAAJcEhZcwAAFxEAABcRAcom8z8AAAEsSURBVHhe7dTZbQJQAAPBRy4SyNF/t0Fiq7BmfuwK9pzX2x/AqNvbo3J9gEnv594DmPRzOgCjZA4YJ3PAuDJ3AObUtwZgTn1rAObUtwZgTn1rAObUtwZgTn1rAObUtwZgTn1rAObUtwZgTn1rAObUtwZgTn1rAObUtwZgTn1rAObUtwZgTn1rAObUtwZgTn1rAObUtwZgTn1rAObUtwZgTn1rAObUtwZgTn1rAObUtwZgTn1rAObUtwZgTn1rAObUtwZgTn1rAObUtwZgTn1rAObUtwZgTn1rAObUtwZgTn1rAObUtwZgTn1rAObUtwZgTn1rAObUtwZgTn1rAObUtwZgTn1rAObUtwZgTn17DsAqmQPGyRww7nx3ACb9no8ewKTPc7l2AQZ9vfwDidCRplisa8AAAAAASUVORK5CYII=;" parent="1" vertex="1">
          <mxGeometry x="160" y="300" width="420" height="28.5" as="geometry" />
        </mxCell>
      </root>
    </mxGraphModel>
  </diagram>
</mxfile>
